<?xml version="1.0" encoding="UTF-8" standalone="no"?>
<svg
   xmlns:dc="http://purl.org/dc/elements/1.1/"
   xmlns:cc="http://creativecommons.org/ns#"
   xmlns:rdf="http://www.w3.org/1999/02/22-rdf-syntax-ns#"
   xmlns:svg="http://www.w3.org/2000/svg"
   xmlns="http://www.w3.org/2000/svg"
   xmlns:sodipodi="http://sodipodi.sourceforge.net/DTD/sodipodi-0.dtd"
   xmlns:inkscape="http://www.inkscape.org/namespaces/inkscape"
   version="1.1"
   id="svg2"
   xml:space="preserve"
   width="733.33331"
   height="753.33466"
   viewBox="0 0 733.33331 753.33466"
   sodipodi:docname="vectorstock_32624081.ai"><metadata
     id="metadata8"><rdf:RDF><cc:Work
         rdf:about=""><dc:format>image/svg+xml</dc:format><dc:type
           rdf:resource="http://purl.org/dc/dcmitype/StillImage" /></cc:Work></rdf:RDF></metadata><defs
     id="defs6"><clipPath
       clipPathUnits="userSpaceOnUse"
       id="clipPath18"><path
         d="M 0,565.001 H 550 V 0 H 0 Z"
         id="path16" /></clipPath></defs><sodipodi:namedview
     pagecolor="#ffffff"
     bordercolor="#424242"
     borderopacity="1"
     objecttolerance="10"
     gridtolerance="10"
     guidetolerance="10"
     inkscape:pageopacity="0"
     inkscape:pageshadow="2"
     inkscape:window-width="640"
     inkscape:window-height="480"
     id="namedview4" />
       <defs>
      <linearGradient id="Gradient1">
        <stop class="stop1" offset="0%"/>
        <stop class="stop2" offset="50%"/>
        <stop class="stop3" offset="100%"/>
      </linearGradient>
      <linearGradient id="Gradient2" x1="0" x2="0" y1="0" y2="1">
        <stop offset="0%" stop-color="#A5B4FC"/>
        <stop offset="50%" stop-color="#DBEAFE" stop-opacity="1"/>
        <stop offset="100%" stop-color="#818CF8"/>
      </linearGradient>
      <style type="text/css"><![CDATA[
        #rect1 { fill: url(#Gradient1); }
        .stop1 { stop-color: red; }
        .stop2 { stop-color: black; stop-opacity: 0; }
        .stop3 { stop-color: blue; }
      ]]></style>
  </defs>
     
     <g
     id="g10"
     inkscape:groupmode="layer"
     inkscape:label="vectorstock_32624081"
     transform="matrix(1.3333333,0,0,-1.3333333,0,753.33467)"><g
       id="g12"><g
         id="g14"
         clip-path="url(#clipPath18)"><g
           id="g20"
           transform="translate(293.7295,426.7422)"><path
             d="M 0,0 C 2.226,0.378 3.523,0.137 3.805,-0.782 3.785,-2.654 2.488,-3.854 -1.864,-3.45 -10.865,-8.181 -14.049,-5.937 -17.168,-3.615 l -6.355,-3.959 c -1.342,-6.029 -3.082,-8.29 -5.06,-8.29 1.604,2.73 2.086,6.238 1.905,10.206 5.542,5.209 11.975,11.426 18.636,13.021 C -9.324,4.758 -15.038,3.981 -14.425,-0.275 -13.02,-4.431 -8.827,-5.108 0,0 m -70.935,9.048 c -1.181,-0.13 -1.373,-5.172 -0.909,-13.454 -1.454,5.292 -5.049,2.936 -6.754,7.131 -1.215,2.993 -1.726,5.713 0.657,7.312 l -4.088,6.079 -4.693,-6.248 c -0.039,6.68 0.641,11.192 2.668,11.649 3.826,1.267 8.396,-4.836 13.119,-12.469 m 50.459,21.153 c -8.354,-0.06 -11.59,-1.336 -14.462,-2.699 1.094,2.28 4.954,4.568 14.28,6.868 l 13.387,-2.947 c 2.441,-0.124 4.373,1.703 5.794,5.481 0.276,-3.735 -0.416,-6.104 -2.246,-6.863 2.176,-3.218 3.564,-8.018 4.055,-14.619 -1.44,-1.884 -3.732,0.245 -7.645,10.004 l -4.227,-1.115 2.698,-3.382 c -7.677,3.419 -13.775,1.426 -22.664,-0.593 1.716,1.597 0.131,5.046 6.483,6.859 l 7.11,0.662 z m -192.818,-351.977 c 23.072,1.805 48.502,5.875 74.552,10.539 l 1.213,-14.475 c 0.102,-21.308 -0.559,-38.604 -1.426,-54.834 -28.281,14.908 -53.464,34.903 -74.339,58.77 m -43.068,87.135 c 12.674,6.84 44.495,6.32 70.825,-2.605 l -48.428,-1.037 c 32.412,-8.284 44.11,-9.41 103.692,-15.78 l 69.589,7.198 33.32,-19.993 c 2.046,-6.625 1.507,-12.046 -7.742,-13.413 -11.753,7.385 -27.144,16.037 -28.367,12.962 l 25.286,-17.451 c 4.812,-8.255 -2.755,-13.176 -8.46,-11.177 -13.328,9.051 -24.49,16.459 -26.347,13.216 l 25.182,-17.306 c 2.332,-5.925 -1.703,-11.541 -8.115,-11.993 -13.611,9.267 -27.092,19.583 -28.839,15.606 l 24.101,-15.768 c 1.93,-6.768 -2.622,-10.528 -7.801,-11.076 l -23.924,12.774 c -24.115,-1.258 -38.004,6.223 -40.622,12.076 -43.404,-9.336 -86.481,-20.492 -133.315,-10.773 -11.557,28.739 -9.009,53.787 9.965,74.54 M -87.293,97.495 c -33.382,-28.098 -13.898,-81.572 -13.898,-81.572 3.467,-16.174 6.796,-23.808 18.093,-42.314 1.102,-16.421 1.456,-25.791 -1.04,-29.458 -8.812,-2.847 -14.305,-11.811 -18.374,-23.402 -33.149,-8.095 -53.8,-16.731 -69.04,-30.725 -30.919,-28.391 -55.224,-54.259 -72.837,-78.73 -12.216,-1.669 -21.319,-9.861 -26.334,-20.717 -4.239,18.549 -6.486,37.854 -6.486,57.681 0,118.92 80.494,219.16 189.916,249.237 M 49.969,4.061 C 39.803,-22.013 43.54,-43.708 54.476,-58.156 L 45.068,-74.08 c -6.444,1.591 -12.885,3.42 -19.241,5.779 -1.114,4.781 -2.969,10.298 -12.855,16.917 10.157,5.506 9.798,13.416 6.185,21.879 3.017,5.16 3.809,12.373 2.575,21.453 3.562,9.144 4.379,18.261 -0.388,27.328 l 3.039,9.941 -0.076,5.448 c 36.836,19.06 33.882,38.981 -7.364,39.555 0,0 -7.932,21.07 -28.606,32.382 32.225,-0.869 62.977,-7.649 91.227,-19.291 z m 52.126,124.832 -27.686,-93.005 39.979,90.421 -27.714,-80.031 35.107,77.485 -24.192,-77.464 33.237,73.202 -26.262,-76.408 37.04,76.229 -28.451,-77.63 37.581,73.425 -39.503,-107.496 51.111,101.543 -32.625,-80.193 44.014,75.315 -36.638,-78.591 44.231,74.768 -43.782,-97.728 55.783,91.942 -44.23,-90.283 55.912,81.947 -41.139,-75.03 51.762,66.312 C 194.11,41.774 180.129,11.657 138.076,-39.793 99.881,-14.776 76.335,-7.464 55.828,-3.827 Z M 96.3,-325.946 c -0.268,0.095 -0.532,0.183 -0.8,0.278 l 1.241,15.002 c 8.197,-14.218 39.332,-25.874 62.941,-28.024 -18.346,-17.515 -39.263,-32.355 -62.122,-43.904 -2.05,24.356 -1.807,41.01 -1.26,56.648 m -115.179,131.062 12.039,-7.33 -30.404,-52.173 -12.236,8.307 z m 87.288,125.61 -35.923,-63.21 c -2.474,-1.713 -5.299,2.647 -10.228,4.956 L 59.38,-63.755 Z M 55.458,-9.479 C 77,-15.996 103.032,-25.948 134.113,-46.142 125.29,-69.18 93.004,-76.085 72.91,-64.383 43.734,-49.601 53.157,-16.568 55.458,-9.479 m 56.06,-186.109 -52.707,27.111 c 2.575,8.254 0.92,18.893 -4.207,24.152 l -9.676,5.851 27.875,47.002 c 37.914,-8.423 52.175,-24.442 92.961,-100.25 -19.431,4.008 -44.159,-0.425 -54.246,-3.866 m 75.11,-42.4 c -24.551,19.307 -44.392,25.147 -60.998,33.933 10.217,5.07 26.756,5.48 50.579,0.518 9.662,-8.238 11.512,-18.08 10.419,-34.451 m -199.219,64.437 c -1.412,4.989 -0.596,10.713 5.673,10.461 16.144,-8.54 30.879,-16.585 29.845,-11.515 l -26.516,16.86 c -1.348,6.507 -0.207,10.979 5.855,11.428 17.433,-9.727 30.727,-18.341 30.252,-14.608 -1.596,3.815 -15.249,12.396 -28.926,20.988 -0.637,5.92 -1.112,11.731 7.023,11.7 12.56,-5.513 25.255,-12.374 38.226,-21.982 4.38,-7.607 4,-15.456 -6.49,-19.668 1.908,-6.979 -1.211,-12.551 -10.802,-14.452 1.468,-7.005 -0.416,-12.232 -8.846,-12.735 2.031,-7.086 -2.264,-8.938 -10.331,-9.042 -9.013,2.656 -14.532,5.45 -32.587,17.112 -1.313,5.816 -2.538,9.87 4.588,10.196 22.289,-12.33 27.285,-14.507 27.615,-10.638 z m 32.823,-37.434 c 5.539,0.124 11.31,3.669 10.114,10.61 5.873,1.897 11.74,3.402 8.971,13.867 7.243,2.514 12.586,5.232 9.223,14.682 52.439,-34.9 83.442,-41.833 132.823,-71.223 19.048,-15.19 24.692,-53.005 -2.318,-86.08 -72.477,-10.494 -118.615,82.291 -158.813,118.144 m -55.79,107.642 c -6.83,-7.429 -13.59,-17.336 -20.165,-33.885 -6.173,9.072 -11.039,25.054 -13.043,36.298 5.97,-4.371 21.952,-3.603 33.208,-2.413 M -58.056,105.872 C -21.514,118.682 10.341,87.656 7.522,72.319 -14.908,69.461 -28.99,66.386 -44.03,55.975 -16.396,64.369 14.322,71.368 37.753,65.131 17.169,55.175 7.475,37.953 -61.367,48.179 c -17.05,-4.251 -29.278,-10.048 -37.7,-17.063 0,0 -16.624,54.549 41.011,74.756 M -91.593,15.278 c 1.001,21.211 15.478,15.382 25.249,0.689 0.007,9.396 1.417,17.594 5.983,23.107 36.059,-2.547 57.434,1.039 74.128,6.578 l 5.897,-7.299 c 0.659,-2.302 0.537,-4.422 -0.12,-6.416 -2.732,1.233 -6.823,1.092 -10.335,-0.642 L 8.351,36.91 C 7.604,34.214 6.722,31.718 4.91,30.635 5.444,22.651 7.51,15.724 9.879,9.006 16.239,2.96 14.012,-1.697 7.439,-5.651 l 1.536,-5.652 -3.757,-2.829 -6.808,3.166 -12.451,-3.984 -4.277,-1.07 -1.782,-6.772 6.059,3.921 11.89,1.802 6.776,-2.348 5.251,3.009 c 4.021,-1.329 1.941,-4.825 -0.267,-7.467 -4.506,-2.453 -6.281,-1.59 -12.405,-0.069 -5.767,0.389 -7.965,-0.839 -9.653,-2.297 5.77,-0.638 11.891,-1.461 18.989,-2.801 10.465,-0.144 10.819,-11.673 2.288,-16.658 -24.15,-9.067 -43.732,-4.512 -63.019,16.017 2.422,-8.708 9.445,-18.236 28.454,-29.902 l 0.414,-24.267 c -1.816,-4.643 -4.988,-9.333 -10.698,-14.113 -13.868,-2.745 -25.288,-2.456 -33.645,1.631 l -4.241,26.496 c 0.359,12.511 0.239,27.205 -1.648,49.946 5.893,2.248 9.823,4.084 9.956,9.093 -19.159,-10.162 -26.637,12.445 -25.994,26.077 m -82.957,-248.884 c -26.908,8.785 -74.686,14.336 -90.74,3.96 -1.822,15.587 9.658,29.941 26.449,31.326 21.767,-4.282 41.245,-10.59 64.291,-35.286 m 18.142,15.306 -9.78,-11.867 c -15.669,16.935 -41.046,36.791 -66.602,38.456 20.562,29.641 41.086,53.398 64.998,75.101 21.95,16.455 42.851,24.56 62.128,26.294 -4.426,-9.442 -9.908,-25.75 -13.068,-35.369 8.828,5.415 17.936,10.144 29.079,9.863 l -4.089,-12.819 c 11.14,-0.007 21.12,-4.924 30.644,-11.768 -5.653,8.863 -12.01,16.264 -21.486,17.216 l 3.28,16.402 c -7.909,2.639 -16.425,0.932 -25.453,-4.46 8.263,25.989 17.333,44.758 24.224,47.811 4.93,-25.165 8.311,-60.323 27.287,-82.517 10.846,35.781 44.068,56.073 54.603,66.514 6.996,8.31 10.014,14.087 10.404,19.692 5.384,-3.209 8.105,-8.63 7.889,-12.217 -1.278,-21.217 -2.621,-31.627 -6.079,-38.774 -12.369,5.625 -24.157,8.88 -34.063,4.44 l -0.832,-13.421 c -10.96,-6.601 -17.043,-12.271 -21.503,-17.469 6.795,5.18 15.845,9.391 29.494,11.629 l -0.396,14.225 c 7.915,-0.877 18.283,-3.979 29.451,-7.807 3.944,6.244 9.584,21.279 10.925,43.36 4.35,-3.21 10.671,-3.711 15.735,-6.228 l -24.128,-40.84 -5.732,0.742 c -8.612,0.123 -14.249,-4.535 -14.229,-18.283 -7.557,-1.447 -8.64,-7.802 -8.041,-15.43 -6.329,-1.902 -8.365,-7.447 -7.817,-15.18 -7.102,-4.128 -11.842,-17.643 -6.726,-23.994 l -26.113,-44.256 -10.046,1.749 -64.751,-8.575 -10.736,0.799 c -5.215,33.276 -9.84,51.256 -15.943,67.027 -2.282,-10.121 -2.925,-23.916 -2.528,-40.046 m 137.679,-191.923 c -31.181,0 -61.068,5.553 -88.752,15.692 l 39.814,67.931 c 8.263,-3.617 12.767,0.543 12.483,9.589 8.291,-1.348 16.028,7.902 13.025,15.156 8.023,2.738 10.686,8.068 8.679,14.312 18.267,4.014 17.736,24.232 8.411,31.637 l 26.51,44.796 11.381,-3.098 74.935,-89.703 c -2.636,-20.252 -4.145,-46.719 -3.522,-84.936 -31.557,-13.738 -66.373,-21.376 -102.964,-21.376 m -71.386,92.934 10.033,-5.969 -35.422,-62.564 -10.73,6.461 z m -41.843,8.548 c 4.782,-4.126 19.111,-7.847 33.48,-8.074 l -34.051,-61.542 c 0.618,28.936 0.881,53.09 0.571,69.616 m 371.708,156.999 c 0,-45.761 -11.93,-88.752 -32.829,-126.052 -0.505,12.061 -3.857,23.325 -10.011,31.504 6.366,26.103 -7.934,45.48 -20.783,53.244 -10.444,23.854 -25.937,58.795 -52.248,86.735 -12.977,13.78 -28.572,20.088 -45.191,24.48 l 3.416,5.713 c 20.447,-4.879 45.027,2.815 62.82,27.804 L 182.895,9.883 C 218.45,-34.392 239.75,-90.591 239.75,-151.742 m -47.425,176.079 34.831,53.384 c -39.771,44.439 -83.683,59.228 -129.479,60.538 l -12.585,-35.4 c -32.054,13.122 -67.098,20.398 -103.821,20.398 -151.636,0 -275,-123.364 -275,-275 0,-32.57 5.714,-63.823 16.157,-92.841 -11.451,-28.003 -4.711,-53.944 3.706,-74.097 11.526,-3.073 25.037,-4.241 39.944,-4.068 50.419,-63.326 128.14,-103.993 215.193,-103.993 151.635,0 274.999,123.364 274.999,274.999 0,66.932 -24.05,128.343 -63.945,176.08"
             style="fill:url(#Gradient2);fill-opacity:1;fill-rule:evenodd;stroke:none"
             id="path22" /></g></g></g></g></svg>
